<svg fill="none" height="181" viewBox="0 0 161 181" width="161" xmlns="http://www.w3.org/2000/svg"><path clip-rule="evenodd" d="m42.7346 0c-23.6017 0-42.7346 19.1329-42.7346 42.7345v16.4364c0 23.6017 19.1329 42.7341 42.7346 42.7341h71.2244c4.29 0 8.432-.632 12.339-1.808l26.665 13.942c4.577 2.393 9.621-2.298 7.564-7.036l-10.682-24.6185c4.332-6.6841 6.848-14.655 6.848-23.2136v-16.4363c0-23.6017-19.133-42.7346-42.734-42.7346z" fill="#4ca1d9" fill-rule="evenodd"/><g fill="#fff"><path d="m40.1259 50.3992 33.0335 13.3145v9.3202l-39.1047-18.0222v-5.4685zm33.0335-10.937-32.9856 13.5048-6.1191.6657v-5.516l39.1047-17.9747z"/><path d="m120.869 52.3012-33.9896-13.1719v-9.0824l40.8256 17.9747v5.5636zm-33.9896 11.6028 34.0856-13.4573 6.74-.9986v5.5161l-40.8256 18.0222z"/><path d="m44.9816 142.177c5.5128 0 9.1667-2.724 9.1667-6.859 0-3.814-2.6603-5.737-9.0065-6.666-3.782-.545-5.3846-1.571-5.3846-3.366 0-1.827 2.0833-3.141 5.0321-3.141 2.2115 0 4.5192.737 6.3782 2.148l1.8911-2.661c-2.2757-1.763-5.3206-2.788-8.3014-2.788-5.1282 0-8.6859 2.66-8.6859 6.41 0 3.942 2.5961 5.962 8.6859 6.795 3.8783.513 5.609 1.506 5.609 3.365 0 2.02-2.1154 3.334-5.3846 3.334-2.7564 0-5.609-.962-7.5001-2.532l-1.9551 2.82c2.6282 2.019 6.0577 3.141 9.4552 3.141z"/><path d="m64.8921 142.081c5.1282 0 8.4295-3.526 8.4295-8.269 0-4.744-3.3013-8.269-8.4295-8.269-5.1603 0-8.4616 3.525-8.4616 8.269 0 4.743 3.3013 8.269 8.4616 8.269zm-4.8719-8.269c0-2.757 1.8911-5 4.8719-5 2.9487 0 4.8397 2.243 4.8397 5 0 2.756-1.891 5-4.8397 5-2.9808 0-4.8719-2.244-4.8719-5z"/><path d="m84.0791 142.081c2.4359 0 4.3911-.801 6.1539-2.5l-2.2115-2.404c-.9616 1.058-2.3718 1.635-3.9103 1.635-2.9167 0-4.9039-2.019-4.9039-5 0-2.949 2.0193-5 4.9039-5 1.4103 0 2.7885.545 3.75 1.506l2.1795-2.34c-1.6987-1.634-3.6859-2.435-5.9936-2.435-5.0321 0-8.4296 3.365-8.4296 8.269 0 5 3.3334 8.269 8.4616 8.269z"/><path d="m93.1071 141.729h3.5898v-15.834h-3.5898zm-.4807-20.385c0 1.25.9615 2.179 2.2756 2.179 1.3782 0 2.3398-.929 2.3398-2.179 0-1.314-.9616-2.244-2.3398-2.244-1.3141 0-2.2756.93-2.2756 2.244z"/><path d="m107.916 142.081c2.436 0 4.551-.929 5.769-2.468l.032 2.116h3.205v-15.834h-3.205l-.032 2.115c-1.218-1.538-3.301-2.467-5.769-2.467-4.648 0-7.853 3.397-7.853 8.269s3.205 8.269 7.853 8.269zm-4.263-8.269c0-2.949 1.987-5 4.84-5 2.852 0 4.839 2.051 4.839 5s-1.987 5-4.839 5c-2.853 0-4.84-2.051-4.84-5z"/><path d="m121.277 141.729h3.59v-22.437h-3.59z"/><path d="m13.1328 173.279h8.5898c6.7629 0 11.3142-4.487 11.3142-11.218s-4.5513-11.218-11.3142-11.218h-8.5898zm3.75-3.461v-15.513h4.8398c4.4552 0 7.5321 3.141 7.5321 7.756 0 4.616-3.0449 7.757-7.5321 7.757z"/><path d="m44.0334 173.728c2.7244 0 5.2565-1.058 6.827-2.757l-2.1795-2.115c-.9615.994-2.7564 1.635-4.5513 1.635-2.7885 0-4.7116-1.475-5-3.782h12.6603c.5128-5.93-2.5641-9.584-8.1411-9.584-4.9039 0-8.2052 3.334-8.2052 8.237 0 5.065 3.3655 8.366 8.5898 8.366zm-4.8718-9.808c.4487-2.34 2.0834-3.686 4.5834-3.686 2.6282 0 4.359 1.443 4.6154 3.686z"/><path d="m59.6876 173.279h3.8462l6.6987-15.833h-3.8462l-2.2115 5.416-2.5641 6.699-2.5321-6.699-2.2115-5.416h-3.9103z"/><path d="m72.9028 173.279h3.5898v-22.436h-3.5898z"/><path d="m88.3203 173.632c5.1283 0 8.4296-3.526 8.4296-8.27 0-4.743-3.3013-8.269-8.4296-8.269-5.1603 0-8.4616 3.526-8.4616 8.269 0 4.744 3.3013 8.27 8.4616 8.27zm-4.8718-8.27c0-2.756 1.891-5 4.8718-5 2.9488 0 4.8398 2.244 4.8398 5 0 2.757-1.891 5-4.8398 5-2.9808 0-4.8718-2.243-4.8718-5z"/><path d="m100.071 180.587h3.59v-9.039c1.25 1.315 3.205 2.084 5.417 2.084 4.647 0 7.853-3.398 7.853-8.27 0-4.871-3.206-8.269-7.853-8.269-2.436 0-4.551.93-5.769 2.468l-.032-2.115h-3.206zm3.59-15.225c0-2.948 2.019-5 4.84-5 2.853 0 4.84 2.052 4.84 5 0 2.949-1.987 5-4.84 5-2.821 0-4.84-2.051-4.84-5z"/><path d="m127.824 173.728c2.725 0 5.257-1.058 6.827-2.757l-2.179-2.115c-.962.994-2.757 1.635-4.552 1.635-2.788 0-4.711-1.475-5-3.782h12.661c.513-5.93-2.564-9.584-8.141-9.584-4.904 0-8.206 3.334-8.206 8.237 0 5.065 3.366 8.366 8.59 8.366zm-4.872-9.808c.449-2.34 2.084-3.686 4.584-3.686 2.628 0 4.359 1.443 4.615 3.686z"/><path d="m138.852 173.279h3.59v-7.724c0-3.109 1.635-5 4.199-5 .962 0 1.763.256 2.66.865l1.603-2.917c-.962-.865-2.468-1.378-4.007-1.378-1.987 0-3.557.834-4.807 2.757l-.032-2.436h-3.206z"/></g></svg>