<svg width="161" height="179" viewBox="0 0 161 179" fill="none" xmlns="http://www.w3.org/2000/svg">
<path fill-rule="evenodd" clip-rule="evenodd" d="M42.7346 0C19.1329 0 0 19.1329 0 42.7345V59.1709C0 82.7726 19.1329 101.905 42.7346 101.905H113.959C118.249 101.905 122.391 101.273 126.298 100.097L152.963 114.039C157.54 116.432 162.584 111.741 160.527 107.003L149.845 82.3845C154.177 75.7004 156.693 67.7295 156.693 59.1709V42.7346C156.693 19.1329 137.56 0 113.959 0H42.7346Z" fill="#4CA1D9"/>
<path d="M40.1259 50.3992L73.1594 63.7137V73.034L34.0547 55.0117V49.5432L40.1259 50.3992ZM73.1594 39.4622L40.1738 52.967L34.0547 53.6327V48.1167L73.1594 30.142V39.4622Z" fill="white"/>
<path d="M120.869 52.3012L86.8794 39.1293V30.0469L127.705 48.0216V53.5852L120.869 52.3012ZM86.8794 63.9039L120.965 50.4467L127.705 49.4481V54.9642L86.8794 72.9864V63.9039Z" fill="white"/>
<path d="M43.1592 140.36C48.7272 140.36 52.4392 137.576 52.4392 133.384C52.4392 129.48 49.6553 127.368 43.4473 126.536C39.9592 126.088 38.5192 125.224 38.5192 123.592C38.5192 121.96 40.4393 120.808 43.2233 120.808C45.3353 120.808 47.5112 121.512 49.3032 122.824L51.4792 119.688C49.1752 117.992 46.1352 117 43.0952 117C37.8152 117 34.1672 119.72 34.1672 123.656C34.1672 127.656 36.8232 129.704 42.9352 130.44C46.4552 130.856 48.0232 131.752 48.0232 133.448C48.0232 135.24 46.1352 136.36 43.1592 136.36C40.4712 136.36 37.8153 135.464 35.9272 133.928L33.6232 137.224C36.1512 139.24 39.6712 140.36 43.1592 140.36Z" fill="white"/>
<path d="M63.1018 140.232C68.3178 140.232 71.6458 136.808 71.6458 131.976C71.6458 127.144 68.3178 123.72 63.1018 123.72C57.8858 123.72 54.5577 127.144 54.5577 131.976C54.5577 136.808 57.8858 140.232 63.1018 140.232ZM58.7817 131.976C58.7817 129.448 60.4778 127.432 63.1018 127.432C65.7258 127.432 67.4218 129.448 67.4218 131.976C67.4218 134.504 65.7258 136.52 63.1018 136.52C60.4778 136.52 58.7817 134.504 58.7817 131.976Z" fill="white"/>
<path d="M82.3838 140.232C84.8158 140.232 86.8317 139.4 88.6237 137.672L86.1278 134.984C85.1678 135.976 83.8878 136.52 82.4798 136.52C79.8238 136.52 78.0317 134.664 78.0317 131.976C78.0317 129.288 79.8558 127.432 82.4798 127.432C83.7918 127.432 85.0398 127.944 85.9358 128.84L88.3997 126.184C86.7037 124.552 84.6557 123.72 82.3197 123.72C77.2317 123.72 73.8077 127.048 73.8077 131.976C73.8077 137 77.1678 140.232 82.3838 140.232Z" fill="white"/>
<path d="M91.2677 139.88H95.5238V124.072H91.2677V139.88ZM90.8197 119.656C90.8197 121.064 91.9078 122.088 93.4118 122.088C94.9158 122.088 96.0358 121.064 96.0358 119.656C96.0358 118.184 94.9158 117.16 93.4118 117.16C91.9078 117.16 90.8197 118.184 90.8197 119.656Z" fill="white"/>
<path d="M106.331 140.232C108.571 140.232 110.492 139.432 111.804 137.96L112.091 139.88H115.772V124.072H112.091L111.804 125.96C110.524 124.52 108.571 123.72 106.331 123.72C101.787 123.72 98.6515 127.112 98.6515 131.976C98.6515 136.84 101.787 140.232 106.331 140.232ZM102.875 131.976C102.875 129.32 104.668 127.432 107.196 127.432C109.756 127.432 111.547 129.32 111.547 131.976C111.547 134.632 109.756 136.52 107.196 136.52C104.668 136.52 102.875 134.632 102.875 131.976Z" fill="white"/>
<path d="M119.862 139.88H124.118V117.48H119.862V139.88Z" fill="white"/>
<path d="M2 171.88H10.832C17.68 171.88 22.224 167.432 22.224 160.68C22.224 153.928 17.68 149.48 10.832 149.48H2V171.88ZM6.416 167.912V153.448H10.832C14.928 153.448 17.776 156.328 17.776 160.68C17.776 165.032 14.96 167.912 10.832 167.912H6.416Z" fill="white"/>
<path d="M33.2 172.296C35.952 172.296 38.48 171.304 40.144 169.608L37.776 167.176C36.752 168.104 35.056 168.68 33.36 168.68C30.8 168.68 29.072 167.368 28.784 165.384H40.976C41.68 159.528 38.512 155.752 32.784 155.752C27.824 155.752 24.464 159.08 24.464 164.008C24.464 169.064 27.856 172.296 33.2 172.296ZM28.848 162.568C29.168 160.456 30.672 159.24 32.912 159.24C35.28 159.24 36.816 160.52 36.976 162.568H28.848Z" fill="white"/>
<path d="M48.7278 171.88H53.1758L59.8637 156.072H55.3197L53.2718 161.192L50.9997 167.432L48.6957 161.192L46.6478 156.072H42.0077L48.7278 171.88Z" fill="white"/>
<path d="M69.3875 172.296C72.1395 172.296 74.6675 171.304 76.3315 169.608L73.9635 167.176C72.9395 168.104 71.2435 168.68 69.5475 168.68C66.9875 168.68 65.2595 167.368 64.9715 165.384H77.1635C77.8675 159.528 74.6995 155.752 68.9715 155.752C64.0115 155.752 60.6515 159.08 60.6515 164.008C60.6515 169.064 64.0435 172.296 69.3875 172.296ZM65.0355 162.568C65.3555 160.456 66.8595 159.24 69.0995 159.24C71.4675 159.24 73.0035 160.52 73.1635 162.568H65.0355Z" fill="white"/>
<path d="M80.2677 171.88H84.5238V149.48H80.2677V171.88Z" fill="white"/>
<path d="M96.1955 172.232C101.412 172.232 104.74 168.808 104.74 163.976C104.74 159.144 101.412 155.72 96.1955 155.72C90.9795 155.72 87.6515 159.144 87.6515 163.976C87.6515 168.808 90.9795 172.232 96.1955 172.232ZM91.8755 163.976C91.8755 161.448 93.5715 159.432 96.1955 159.432C98.8195 159.432 100.516 161.448 100.516 163.976C100.516 166.504 98.8195 168.52 96.1955 168.52C93.5715 168.52 91.8755 166.504 91.8755 163.976Z" fill="white"/>
<path d="M107.861 178.952H112.118V170.248C113.398 171.528 115.222 172.232 117.302 172.232C121.846 172.232 124.981 168.84 124.981 163.976C124.981 159.112 121.846 155.72 117.302 155.72C115.062 155.72 113.11 156.52 111.83 157.96L111.541 156.072H107.861V178.952ZM112.086 163.976C112.086 161.32 113.877 159.432 116.437 159.432C118.965 159.432 120.757 161.32 120.757 163.976C120.757 166.632 118.965 168.52 116.437 168.52C113.877 168.52 112.086 166.632 112.086 163.976Z" fill="white"/>
<path d="M135.888 172.296C138.64 172.296 141.168 171.304 142.832 169.608L140.464 167.176C139.44 168.104 137.743 168.68 136.047 168.68C133.487 168.68 131.759 167.368 131.471 165.384H143.664C144.368 159.528 141.199 155.752 135.471 155.752C130.511 155.752 127.151 159.08 127.151 164.008C127.151 169.064 130.544 172.296 135.888 172.296ZM131.535 162.568C131.855 160.456 133.359 159.24 135.599 159.24C137.967 159.24 139.504 160.52 139.664 162.568H131.535Z" fill="white"/>
<path d="M146.768 171.88H151.024V164.168C151.024 161.288 152.528 159.656 154.864 159.656C155.76 159.656 156.528 159.88 157.424 160.488L159.28 157.192C158.256 156.232 156.72 155.752 155.248 155.752C153.52 155.752 152.016 156.424 150.8 158.056L150.448 156.072H146.768V171.88Z" fill="white"/>
</svg>
